PathFileType	4	(X/Y/Z)	s04c0202.trc
DataRate	CameraRate	NumFrames	NumMarkers	Units	OrigDataRate	OrigDataStartFrame	OrigNumFrames
200	200	6	50	mm	200	1250	2000
Frame#	Time	racr			lacr			c7			jug			rlel			rdr			llel			ldr			s2			lic			ric			lasi			rasi			rpsi			lpsi			rgt			lgt			rth1			rth2			rth3			rth4			rlfc			rmfc			rsh1			rsh2			rsh3			rsh4			rlmal			rmmal			rcal			rtoe			rmt5			lth1			lth2			lth4			lth3			llfc			lmfc			lsh1			lsh2			lsh3			lsh4			llmal			lmmal			lcal			ltoe			lmt5			SBIKE			LBIKE			RBIKE			
		X1	Y1	Z1	X2	Y2	Z2	X3	Y3	Z3	X4	Y4	Z4	X5	Y5	Z5	X6	Y6	Z6	X7	Y7	Z7	X8	Y8	Z8	X9	Y9	Z9	X10	Y10	Z10	X11	Y11	Z11	X12	Y12	Z12	X13	Y13	Z13	X14	Y14	Z14	X15	Y15	Z15	X16	Y16	Z16	X17	Y17	Z17	X18	Y18	Z18	X19	Y19	Z19	X20	Y20	Z20	X21	Y21	Z21	X22	Y22	Z22	X23	Y23	Z23	X24	Y24	Z24	X25	Y25	Z25	X26	Y26	Z26	X27	Y27	Z27	X28	Y28	Z28	X29	Y29	Z29	X30	Y30	Z30	X31	Y31	Z31	X32	Y32	Z32	X33	Y33	Z33	X34	Y34	Z34	X35	Y35	Z35	X36	Y36	Z36	X37	Y37	Z37	X38	Y38	Z38	X39	Y39	Z39	X40	Y40	Z40	X41	Y41	Z41	X42	Y42	Z42	X43	Y43	Z43	X44	Y44	Z44	X45	Y45	Z45	X46	Y46	Z46	X47	Y47	Z47	X48	Y48	Z48	X49	Y49	Z49	X50	Y50	Z50	
1250	6.2500	513.956514	1339.608160	-125.973101	486.714792	1349.156868	-401.235686	480.858934	1415.520463	-265.078533	426.430693	1266.797468	-263.238692	457.402322	1061.101814	33.899523	680.952079	940.522106	-111.742133	473.995387	1121.926385	-586.582934	661.229845	923.673848	-476.826398	-73.876942	1178.112963	-310.976794	92.402608	1192.661443	-454.864385	53.563947	1206.607798	-136.772971	131.394796	1145.594632	-405.541007	109.719502	1169.545224	-176.077679	-56.772754	1227.090774	-268.037861	-45.837571	1226.477087	-343.236792	22.215302	1157.737976	-118.712183	57.626436	1090.156931	-480.017335	160.511683	1073.319813	-105.241117	246.143512	1052.108651	-114.060691	309.608115	996.274557	-113.932520	260.077304	1082.059177	-132.742247	428.551383	909.606646	-137.860857	411.497242	884.310330	-249.061265	381.861960	796.456600	-109.882044	367.936916	706.458213	-120.703720	310.776585	641.777800	-123.210047	397.540316	696.656812	-144.429960	260.265771	495.952025	-126.237556	276.639336	502.551077	-211.628668	187.094604	461.555574	-161.733666	485.948998	444.074913	-166.189645	422.909645	419.329592	-106.441707	113.076105	1011.867351	-489.476731	183.908052	961.950115	-489.137466	209.821899	983.432679	-476.182311	221.764607	881.492188	-495.110875	291.054817	736.484774	-476.910234	317.139319	709.202497	-365.962739	238.960815	624.282382	-495.777483	207.094619	547.376111	-469.659846	139.240706	490.212573	-466.464644	230.662259	536.101050	-440.061221	49.649351	371.940169	-455.685999	47.323302	374.268930	-367.748928	-26.915705	393.982631	-413.158275	208.469349	198.876047	-411.722334	130.339801	213.953427	-473.211648	-184.713171	932.082326	-286.167337	-17.444233	79.605007	-485.350131	-17.425296	79.350108	-84.677606	
1251	6.2550	514.133158	1340.215481	-126.631161	486.352461	1348.745933	-401.804701	480.511017	1415.329916	-265.681375	426.656079	1266.383145	-263.202255	457.079681	1061.937299	33.402806	680.674941	940.956138	-111.585754	472.770025	1120.863147	-586.046200	661.037097	923.133962	-476.536557	-74.047307	1176.155110	-311.360638	92.680602	1191.209735	-454.048219	53.463807	1204.380860	-135.972624	131.899515	1144.443139	-404.730845	109.942127	1166.810743	-174.182189	-56.839532	1224.501154	-267.681353	-45.655356	1224.621992	-343.594347	21.745815	1152.673264	-118.289271	59.507599	1088.911976	-479.806886	159.784479	1064.441463	-104.566812	245.030458	1041.922023	-112.598604	307.479526	984.625418	-113.581453	259.851114	1071.890989	-130.487965	424.006901	894.910621	-136.389164	406.957044	869.958104	-247.943826	378.437645	780.029484	-109.438507	365.457340	690.029040	-121.253005	310.000532	624.543045	-124.144120	395.528607	681.169260	-145.094574	261.303228	479.667079	-127.401695	278.290879	487.504698	-213.204331	189.470977	443.674220	-162.756717	488.754216	437.022317	-165.764299	426.165693	410.005445	-106.233526	116.130491	1012.190103	-488.840785	187.962344	963.587443	-488.459026	213.411484	985.622555	-475.555964	227.408339	883.873209	-494.382162	298.050128	740.818635	-475.873672	323.450142	713.484729	-364.972777	244.769799	630.087360	-494.864436	210.954467	553.990951	-468.625410	141.711085	498.568021	-465.717008	234.017266	542.306261	-438.854065	48.816053	382.753881	-455.161255	46.862454	385.166726	-367.127002	-27.459674	406.710114	-412.363845	202.569362	204.829490	-411.323133	125.491069	222.748709	-473.152060	-184.754963	932.051968	-286.489522	-17.450617	79.518937	-485.398017	-17.430609	79.338152	-84.713599	
1252	6.2600	514.249393	1340.907238	-127.301517	485.519116	1348.159394	-402.190428	480.152474	1415.152908	-266.360337	426.328183	1266.188954	-262.936615	456.691140	1062.686154	32.843169	680.561237	941.378675	-111.402716	471.708803	1119.461956	-585.316330	661.094938	922.413098	-476.393533	-74.233244	1173.881382	-311.778923	93.075871	1189.593950	-453.185986	53.544575	1202.019268	-135.069440	132.270164	1143.251032	-403.625752	110.204565	1164.055046	-172.944488	-56.737079	1221.934227	-267.759259	-45.411358	1222.318088	-343.882531	21.418674	1147.310996	-117.796355	61.364692	1087.567190	-479.575872	159.136038	1055.648817	-103.618285	243.934595	1031.520367	-111.358052	305.528721	973.062822	-113.654818	259.959054	1062.129586	-127.777675	419.464296	880.527157	-135.044646	402.535488	855.554147	-247.290898	374.470909	764.435555	-109.197853	362.959040	674.180935	-121.806023	308.939333	607.778457	-124.912207	393.365632	666.137444	-145.642474	262.981133	463.929751	-128.077372	279.447678	472.553109	-213.578126	192.554903	426.215833	-164.126568	491.311845	429.005726	-165.504325	429.285830	400.141879	-106.253186	119.014185	1012.317178	-488.313009	191.696206	965.063142	-487.997951	216.740242	987.540173	-475.314472	232.603206	886.059964	-493.784727	304.782751	744.985051	-474.669454	329.464115	717.630480	-364.138790	250.272098	635.736738	-493.802317	214.657459	560.478384	-467.673077	144.172566	506.679274	-464.985367	237.245684	548.571507	-437.601617	48.063918	393.561209	-454.686415	46.560645	396.287619	-366.452185	-27.603011	419.065322	-411.870403	197.832644	212.223477	-411.387579	121.109417	231.995635	-473.173758	-184.782402	931.951858	-286.641275	-17.453180	79.418950	-485.429531	-17.434308	79.300943	-84.725390	
1253	6.2650	514.460898	1341.287345	-127.981597	485.230905	1347.510719	-402.896704	479.819308	1414.907042	-267.040191	426.551086	1265.731833	-263.084949	456.307254	1063.355163	32.329730	680.514500	941.763289	-111.277772	470.767414	1117.961609	-584.429009	661.117961	921.729551	-476.027077	-74.288958	1171.408823	-311.959902	93.398651	1187.943478	-452.419461	53.780575	1199.489988	-134.304734	132.756056	1141.988459	-402.834085	110.508767	1161.397951	-171.756328	-56.763301	1219.383824	-267.598093	-45.051024	1219.777944	-344.342976	21.375309	1141.676824	-117.119156	63.140484	1086.129433	-479.199895	158.532784	1047.116137	-102.503559	242.781529	1021.326980	-110.337670	303.237950	961.407342	-113.425753	259.721654	1051.998003	-125.599970	414.848887	866.653628	-134.186564	398.534644	842.169676	-245.595381	370.234868	751.454210	-108.714139	361.533463	661.025043	-121.863214	308.645633	593.274573	-125.433584	391.746491	653.831313	-145.329845	264.837897	448.741185	-128.619070	280.929024	458.152745	-214.259324	194.330647	411.255587	-163.733934	493.599657	420.253658	-165.322387	432.429505	389.910672	-106.534033	121.592885	1012.396809	-487.843376	195.086956	966.322993	-487.741546	219.884253	989.501470	-475.762626	237.253041	888.013906	-493.354083	311.043334	749.167444	-473.348519	335.295958	721.652233	-363.067287	255.528703	641.372342	-493.007171	218.214152	567.110327	-466.783626	146.267111	514.896870	-464.136749	240.285180	554.718110	-436.569919	47.603651	404.211244	-454.278021	46.542912	407.099895	-365.871028	-27.636406	431.376959	-411.508173	193.650771	220.147782	-411.379023	117.383156	241.551245	-473.162629	-184.818178	931.884875	-286.916721	-17.464575	79.307650	-485.463875	-17.437558	79.302673	-84.765636	
1254	6.2700	514.692189	1341.581520	-128.689556	484.570740	1346.758893	-403.395818	479.543648	1414.635900	-267.663960	426.330513	1265.434880	-263.053276	456.006942	1063.915829	31.924314	680.547653	942.096573	-111.280004	470.075022	1116.180189	-583.179271	661.141769	920.927895	-475.646930	-74.190913	1168.953437	-311.870549	93.547409	1186.285574	-451.482264	53.954492	1196.886122	-133.332832	133.681469	1141.355687	-402.727289	110.828858	1158.851415	-170.674598	-56.866463	1216.913515	-267.209543	-44.943668	1217.156812	-344.383683	21.500612	1136.330243	-116.357559	64.854279	1084.730710	-478.816678	157.900507	1039.240439	-101.643299	241.481960	1011.411731	-109.251199	300.519883	949.924012	-113.566530	259.383344	1042.036358	-123.788596	409.688047	853.375036	-134.047393	393.816331	830.170416	-245.585352	366.169606	739.747693	-108.467104	359.748110	649.169987	-121.496744	308.202435	580.364438	-125.610936	390.656648	642.500872	-144.938454	266.537281	434.378379	-128.971159	282.543940	444.654019	-215.122260	196.825465	395.139545	-164.943652	495.594816	410.888693	-165.219109	434.812967	379.403561	-106.550521	123.888591	1012.463856	-487.383919	198.117433	967.753737	-488.079433	222.554348	991.043038	-475.517361	241.441503	889.853316	-493.175500	317.370519	753.176115	-472.292687	340.577111	725.682282	-362.132738	260.488068	647.078616	-492.245730	221.445126	573.799508	-466.060086	148.357215	523.151473	-463.541083	242.960726	560.875429	-435.658101	47.360568	414.936900	-453.900379	46.278967	417.830223	-365.050162	-27.491635	443.439349	-411.351760	190.170213	228.877378	-411.532408	114.224131	251.364689	-473.232303	-184.815544	931.856442	-287.127995	-17.435259	79.227301	-485.500733	-17.435933	79.280848	-84.791331	
1255	6.2750	514.929209	1341.781175	-129.456900	484.201671	1346.091096	-404.042251	479.226868	1414.359608	-268.430952	426.425563	1265.002807	-263.350538	455.774066	1064.224706	31.399507	680.666664	942.408985	-111.348089	469.285932	1114.448816	-582.325493	661.322022	920.119639	-475.220336	-73.895488	1166.357497	-312.011336	93.813716	1184.668782	-450.801443	54.290747	1194.390239	-132.298781	134.047017	1140.214868	-401.969477	111.309363	1156.236542	-169.770310	-57.090052	1214.559732	-266.504486	-45.129820	1214.322970	-344.316157	21.736895	1131.018681	-115.889355	66.420797	1083.345242	-478.362009	157.119569	1032.252545	-101.010256	240.106822	1002.750560	-108.245774	297.400643	939.628296	-113.067129	258.385813	1032.440876	-122.631185	404.757981	842.836361	-133.909036	390.743595	820.858822	-245.864133	362.293236	728.295108	-108.232240	357.420820	637.549449	-121.185268	307.168565	567.874188	-125.499094	388.569819	631.380986	-144.374021	267.895699	421.192860	-129.070303	283.958687	432.939829	-214.289604	198.564218	380.990367	-165.123351	497.192286	400.936522	-165.190228	436.712191	368.570084	-106.673925	125.896363	1012.469959	-487.011695	200.732536	968.668430	-487.550057	224.869919	992.303909	-474.979636	245.203522	891.587922	-493.261368	323.620878	757.118485	-471.304148	346.587792	729.431182	-361.138618	265.151616	652.863047	-491.519537	224.459772	580.464782	-465.297452	150.225528	531.577780	-463.104628	245.804438	567.062425	-435.074988	47.251178	425.554623	-453.644654	46.587355	427.868652	-365.089704	-27.277030	455.241803	-411.024725	187.246797	237.871695	-411.509391	111.611679	261.537297	-473.366510	-184.830068	931.813991	-287.243595	-17.455751	79.168436	-485.506940	-17.444378	79.289402	-84.819506	
